<svg width="32" height="32" viewBox="0 0 32 32" fill="none" xmlns="http://www.w3.org/2000/svg">
<g clip-path="url(#clip0_128_150)">
<path d="M23.4444 21.1701L17.5592 15.5121L23.2155 9.62872C23.759 9.06345 23.7413 8.16624 23.1761 7.62278C22.6108 7.07932 21.7136 7.09697 21.1701 7.66225L15.5138 13.5456L9.63047 7.88927C9.0652 7.34581 8.168 7.36346 7.62453 7.92874C7.08107 8.49401 7.09872 9.39121 7.664 9.93468L13.5473 15.591L7.89102 21.4743C7.34756 22.0396 7.36521 22.9368 7.93049 23.4803C8.49576 24.0237 9.39297 24.0061 9.93643 23.4408L15.5927 17.5575L21.4761 23.2138C22.0413 23.7572 22.9385 23.7396 23.482 23.1743C24.0255 22.609 24.0078 21.7118 23.4444 21.1701Z" fill="#FCFCFC"/>
</g>
<defs>
<clipPath id="clip0_128_150">
<rect width="22" height="22" fill="white" transform="translate(15.2473) rotate(43.8729)"/>
</clipPath>
</defs>
</svg>
