<svg width="124" height="34" viewBox="0 0 124 34" fill="none" xmlns="http://www.w3.org/2000/svg">
<g filter="url(#filter0_d_47_37)">
<path d="M19.105 15.075C18.999 15.3577 18.893 15.6845 18.787 16.0555C18.681 16.4265 18.5662 16.824 18.4425 17.248C18.3542 17.5837 18.2393 18.0695 18.098 18.7055C17.9567 19.3238 17.833 19.9687 17.727 20.64C16.826 20.6047 15.8102 20.587 14.6795 20.587C13.5488 20.5693 12.5418 20.5605 11.6585 20.5605C11.2698 20.5605 10.7663 20.5605 10.148 20.5605C9.54733 20.5605 8.89367 20.5693 8.187 20.587C7.48033 20.587 6.76483 20.5958 6.0405 20.6135C5.31617 20.6135 4.636 20.6223 4 20.64L4.1325 20.11C4.73317 20.0747 5.20133 20.004 5.537 19.898C5.87267 19.792 6.12883 19.58 6.3055 19.262C6.49983 18.944 6.68533 18.467 6.862 17.831L10.3865 4.687C10.5632 4.03333 10.6338 3.55633 10.5985 3.256C10.5808 2.938 10.4307 2.726 10.148 2.62C9.883 2.49633 9.45017 2.42567 8.8495 2.408L8.982 1.878C9.353 1.89567 9.83883 1.91333 10.4395 1.931C11.0402 1.94867 11.685 1.9575 12.374 1.9575C12.9923 1.9575 13.6018 1.94867 14.2025 1.931C14.8208 1.91333 15.3332 1.89567 15.7395 1.878L15.607 2.408C15.0063 2.42567 14.5382 2.49633 14.2025 2.62C13.8668 2.726 13.6018 2.938 13.4075 3.256C13.2132 3.55633 13.0277 4.03333 12.851 4.687L9.3265 17.831C9.14983 18.467 9.07033 18.944 9.088 19.262C9.12333 19.58 9.28233 19.792 9.565 19.898C9.84767 19.9863 10.2893 20.0305 10.89 20.0305H12.8245C13.9375 20.0305 14.8208 19.8715 15.4745 19.5535C16.1458 19.2355 16.7023 18.7143 17.144 17.99C17.6033 17.2657 18.0538 16.294 18.4955 15.075H19.105Z" fill="#FCFCFC"/>
<path d="M26.6293 2.1695C26.6293 2.55817 26.5233 2.9645 26.3113 3.3885C26.117 3.79483 25.8608 4.28067 25.5428 4.846C25.2248 5.39367 24.8892 6.08267 24.5358 6.913H24.1648C24.2885 6.04733 24.368 5.35833 24.4033 4.846C24.4387 4.316 24.474 3.87433 24.5093 3.521C24.5447 3.15 24.6065 2.779 24.6948 2.408C24.7832 2.00167 24.9333 1.719 25.1453 1.56C25.3573 1.38333 25.5782 1.295 25.8078 1.295C26.1082 1.295 26.3202 1.38333 26.4438 1.56C26.5675 1.719 26.6293 1.92217 26.6293 2.1695Z" fill="#FCFCFC"/>
<path d="M33.6208 7.178C32.9495 7.178 32.2781 7.45183 31.6068 7.9995C30.9531 8.54717 30.3525 9.298 29.8048 10.252C29.2571 11.206 28.8155 12.2925 28.4798 13.5115C28.1618 14.7305 28.0028 16.0113 28.0028 17.354C28.0028 18.255 28.1706 18.9087 28.5063 19.315C28.8596 19.7037 29.3101 19.898 29.8578 19.898C30.4938 19.898 31.1475 19.7037 31.8188 19.315C32.4901 18.9263 33.1615 18.2373 33.8328 17.248L34.3628 17.46C34.0271 18.043 33.5855 18.6083 33.0378 19.156C32.4901 19.7037 31.8718 20.1542 31.1828 20.5075C30.5115 20.8432 29.796 21.011 29.0363 21.011C27.9763 21.011 27.1283 20.6842 26.4923 20.0305C25.8563 19.3768 25.5383 18.4052 25.5383 17.1155C25.5383 16.3028 25.6531 15.4283 25.8828 14.492C26.1301 13.538 26.4746 12.6017 26.9163 11.683C27.3756 10.7467 27.9321 9.9075 28.5858 9.1655C29.2395 8.40583 29.9815 7.79633 30.8118 7.337C31.6421 6.87767 32.552 6.648 33.5413 6.648C34.3186 6.648 34.99 6.85117 35.5553 7.2575C36.1206 7.64617 36.4033 8.19383 36.4033 8.9005C36.4033 9.23617 36.3238 9.57183 36.1648 9.9075C36.0235 10.2255 35.8115 10.4905 35.5288 10.7025C35.2461 10.9145 34.9105 11.0205 34.5218 11.0205C34.1508 11.0205 33.877 10.9233 33.7003 10.729C33.5236 10.517 33.4353 10.2697 33.4353 9.987C33.4353 9.47467 33.6385 9.04183 34.0448 8.6885C34.4511 8.3175 34.9105 8.08783 35.4228 7.9995C35.2461 7.75217 35.0165 7.55783 34.7338 7.4165C34.4511 7.2575 34.0801 7.178 33.6208 7.178Z" fill="#FCFCFC"/>
<path d="M44.5558 7.178C43.9904 7.178 43.4428 7.40767 42.9128 7.867C42.4004 8.30867 41.9234 8.91817 41.4818 9.6955C41.0578 10.4552 40.6779 11.312 40.3423 12.266C40.0243 13.22 39.7769 14.2093 39.6003 15.234C39.4236 16.2587 39.3353 17.2392 39.3353 18.1755C39.3353 18.9705 39.4589 19.5535 39.7063 19.9245C39.9713 20.2955 40.3511 20.481 40.8458 20.481C41.4111 20.481 41.9499 20.2602 42.4623 19.8185C42.9923 19.3592 43.4781 18.7497 43.9198 17.99C44.3614 17.2127 44.7413 16.347 45.0593 15.393C45.3773 14.439 45.6246 13.4585 45.8013 12.4515C45.9779 11.4268 46.0663 10.4375 46.0663 9.4835C46.0663 8.67083 45.9426 8.08783 45.6953 7.7345C45.4479 7.3635 45.0681 7.178 44.5558 7.178ZM37.0563 16.8505C37.0563 16.0732 37.1623 15.2252 37.3743 14.3065C37.5863 13.3878 37.9043 12.478 38.3283 11.577C38.7523 10.676 39.2646 9.8545 39.8653 9.1125C40.4836 8.3705 41.1991 7.77867 42.0118 7.337C42.8244 6.87767 43.7254 6.648 44.7148 6.648C45.8101 6.648 46.6846 6.9925 47.3383 7.6815C48.0096 8.35283 48.3453 9.39517 48.3453 10.8085C48.3453 11.5858 48.2393 12.4338 48.0273 13.3525C47.8153 14.2712 47.4973 15.181 47.0733 16.082C46.6493 16.983 46.1281 17.8045 45.5098 18.5465C44.9091 19.2885 44.2024 19.8892 43.3898 20.3485C42.5771 20.7902 41.6761 21.011 40.6868 21.011C39.5914 21.011 38.7081 20.6665 38.0368 19.9775C37.3831 19.2885 37.0563 18.2462 37.0563 16.8505Z" fill="#FCFCFC"/>
<path d="M52.6457 20.64H50.3402L53.5202 9.2715C53.5732 9.1125 53.6174 8.90933 53.6527 8.662C53.7057 8.397 53.7057 8.1585 53.6527 7.9465C53.5997 7.7345 53.4319 7.6285 53.1492 7.6285C52.7606 7.6285 52.4072 7.83167 52.0892 8.238C51.7712 8.64433 51.4356 9.34217 51.0822 10.3315L50.7377 11.312H50.2342L50.8967 9.3775C51.1617 8.6355 51.4709 8.07017 51.8242 7.6815C52.1952 7.29283 52.5751 7.02783 52.9637 6.8865C53.3701 6.7275 53.7499 6.648 54.1032 6.648C54.6332 6.648 55.0131 6.77167 55.2427 7.019C55.4724 7.24867 55.5961 7.55783 55.6137 7.9465C55.6491 8.3175 55.6226 8.715 55.5342 9.139C55.4459 9.563 55.3487 9.96933 55.2427 10.358L52.6457 20.64ZM60.1452 9.722C60.2689 9.351 60.3484 8.99767 60.3837 8.662C60.4367 8.32633 60.4102 8.0525 60.3042 7.8405C60.2159 7.61083 60.0039 7.496 59.6682 7.496C59.1736 7.496 58.6259 7.80517 58.0252 8.4235C57.4422 9.02417 56.8416 9.87217 56.2232 10.9675C55.6226 12.0452 55.0396 13.3083 54.4742 14.757C53.9089 16.188 53.4054 17.725 52.9637 19.368L53.8382 15.128C54.6509 13.008 55.4106 11.3297 56.1172 10.093C56.8239 8.85633 57.5306 7.973 58.2372 7.443C58.9616 6.913 59.7301 6.648 60.5427 6.648C61.1081 6.648 61.5144 6.7805 61.7617 7.0455C62.0267 7.29283 62.1857 7.61967 62.2387 8.026C62.2917 8.43233 62.2741 8.86517 62.1857 9.3245C62.1151 9.78383 62.0267 10.2255 61.9207 10.6495L59.2177 20.64H56.8327L60.1452 9.722ZM66.7702 9.722C66.9469 9.17433 67.0352 8.67083 67.0352 8.2115C67.0352 7.7345 66.8409 7.496 66.4522 7.496C65.9222 7.496 65.3657 7.80517 64.7827 8.4235C64.1997 9.04183 63.5991 9.92517 62.9807 11.0735C62.3624 12.2042 61.7441 13.538 61.1257 15.075C60.5251 16.5943 59.9421 18.2727 59.3767 20.11L59.9862 16.718C60.6752 14.8807 61.3112 13.326 61.8942 12.054C62.4772 10.7643 63.0514 9.722 63.6167 8.927C64.1821 8.132 64.7651 7.55783 65.3657 7.2045C65.9664 6.8335 66.6201 6.648 67.3267 6.648C68.0687 6.648 68.5722 6.86 68.8372 7.284C69.1022 7.708 69.2082 8.22917 69.1552 8.8475C69.1199 9.44817 69.0051 10.0488 68.8107 10.6495L66.2402 18.3875C66.0636 18.9352 66.0017 19.3503 66.0547 19.633C66.1077 19.898 66.3109 20.0305 66.6642 20.0305C66.9999 20.0305 67.3267 19.845 67.6447 19.474C67.9804 19.103 68.3337 18.3875 68.7047 17.3275L69.0492 16.347H69.5527L68.8902 18.2815C68.6429 19.0235 68.3337 19.5888 67.9627 19.9775C67.6094 20.3662 67.2296 20.6312 66.8232 20.7725C66.4346 20.9315 66.0547 21.011 65.6837 21.011C65.2421 21.011 64.8887 20.9403 64.6237 20.799C64.3764 20.6753 64.1821 20.5075 64.0407 20.2955C63.8287 19.9598 63.7581 19.5447 63.8287 19.05C63.8994 18.5377 64.0407 17.9547 64.2527 17.301L66.7702 9.722Z" fill="#FCFCFC"/>
<path d="M80.937 7.496C80.4776 7.496 79.9565 7.82283 79.3735 8.4765C78.8081 9.1125 78.2251 9.987 77.6245 11.1C77.0415 12.1953 76.485 13.432 75.955 14.81C75.4426 16.188 75.0098 17.619 74.6565 19.103L75.1335 16.241C75.8931 13.9267 76.6263 12.0717 77.333 10.676C78.0396 9.26267 78.7463 8.238 79.4529 7.602C80.1773 6.966 80.9281 6.648 81.7055 6.648C82.5358 6.648 83.1983 6.95717 83.693 7.5755C84.2053 8.19383 84.4615 9.13017 84.4615 10.3845C84.4615 11.1795 84.3466 12.054 84.117 13.008C83.905 13.962 83.5781 14.9072 83.1365 15.8435C82.7124 16.7798 82.1825 17.6455 81.5465 18.4405C80.9281 19.2178 80.2126 19.845 79.4 20.322C78.5873 20.7813 77.6863 21.011 76.697 21.011C76.167 21.011 75.69 20.852 75.266 20.534C74.8596 20.216 74.5858 19.7567 74.4445 19.156L74.6565 18.626C74.9038 19.2797 75.1865 19.739 75.5045 20.004C75.8401 20.269 76.2288 20.4015 76.6705 20.4015C77.2711 20.4015 77.8453 20.1718 78.393 19.7125C78.9406 19.2355 79.4441 18.6083 79.9035 17.831C80.3628 17.0537 80.7603 16.1968 81.096 15.2605C81.4493 14.3065 81.7143 13.3613 81.891 12.425C82.0853 11.471 82.1825 10.5965 82.1825 9.8015C82.1825 9.02417 82.0676 8.45 81.838 8.079C81.626 7.69033 81.3256 7.496 80.937 7.496ZM76.962 2.9645C77.386 2.94683 77.8011 2.9115 78.2075 2.8585C78.6315 2.8055 79.0201 2.71717 79.3735 2.5935L73.5435 22.972C73.3315 23.714 73.4374 24.2175 73.8615 24.4825C74.2855 24.7475 74.895 24.88 75.69 24.88L75.531 25.4365C75.1776 25.4188 74.6741 25.3923 74.0205 25.357C73.3845 25.3393 72.7043 25.3305 71.9799 25.3305C71.4323 25.3305 70.8758 25.3393 70.3105 25.357C69.7451 25.3923 69.3211 25.4188 69.0385 25.4365L69.1975 24.88C69.8335 24.88 70.2928 24.7563 70.5755 24.509C70.8581 24.2793 71.0878 23.8553 71.2645 23.237L76.962 2.9645ZM71.45 11.1795C72.139 10.5082 72.7838 9.84567 73.3845 9.192C73.9851 8.52067 74.5681 7.72567 75.1335 6.807C75.6988 5.88833 76.273 4.73117 76.856 3.3355L76.9355 3.7595C76.5468 4.96083 76.0786 6.02083 75.531 6.9395C75.001 7.8405 74.418 8.662 73.782 9.404C73.146 10.1283 72.4658 10.835 71.7415 11.524L71.45 11.1795Z" fill="#FCFCFC"/>
<path d="M90.4712 2.196C90.5595 1.73667 90.7892 1.33917 91.1602 1.0035C91.5488 0.667833 91.964 0.5 92.4057 0.5C92.865 0.5 93.2183 0.667833 93.4657 1.0035C93.7307 1.33917 93.819 1.73667 93.7307 2.196C93.6423 2.65533 93.4038 3.05283 93.0152 3.3885C92.6442 3.72417 92.229 3.892 91.7697 3.892C91.328 3.892 90.9747 3.72417 90.7097 3.3885C90.4623 3.05283 90.3828 2.65533 90.4712 2.196ZM89.6497 9.2715C90.0207 8.17617 89.897 7.6285 89.2787 7.6285C88.8723 7.6285 88.5102 7.84933 88.1922 8.291C87.8742 8.73267 87.5385 9.41283 87.1852 10.3315L86.8142 11.312H86.3107L86.9997 9.3775C87.2647 8.6355 87.5827 8.07017 87.9537 7.6815C88.3247 7.29283 88.7133 7.02783 89.1197 6.8865C89.5437 6.7275 89.9323 6.648 90.2857 6.648C90.851 6.648 91.2662 6.76283 91.5312 6.9925C91.7962 7.22217 91.9552 7.5225 92.0082 7.8935C92.0612 8.2645 92.0435 8.67083 91.9552 9.1125C91.8668 9.5365 91.752 9.95167 91.6107 10.358L88.7752 18.3875C88.5985 18.8998 88.5367 19.3062 88.5897 19.6065C88.6603 19.8892 88.8635 20.0305 89.1992 20.0305C89.5525 20.0305 89.8882 19.8362 90.2062 19.4475C90.5242 19.0588 90.8775 18.3522 91.2662 17.3275L91.6372 16.347H92.1407L91.4517 18.2815C91.2043 18.9705 90.904 19.5182 90.5507 19.9245C90.1973 20.3132 89.8175 20.587 89.4112 20.746C89.0048 20.9227 88.5985 21.011 88.1922 21.011C87.4325 21.011 86.9202 20.8343 86.6552 20.481C86.3902 20.1277 86.293 19.6683 86.3637 19.103C86.4343 18.5377 86.5845 17.937 86.8142 17.301L89.6497 9.2715Z" fill="#FCFCFC"/>
<path d="M103.397 7.019L103.317 7.549H95.0757L95.2082 7.019H103.397ZM96.6657 18.3875C96.5067 18.9705 96.5421 19.3945 96.7717 19.6595C97.0191 19.9068 97.3371 20.0305 97.7257 20.0305C98.1144 20.0305 98.5031 19.8627 98.8917 19.527C99.2981 19.1913 99.6956 18.4758 100.084 17.3805L100.455 16.347H100.959L100.402 18.0165C100.014 19.1648 99.5101 19.951 98.8917 20.375C98.2911 20.799 97.5844 21.011 96.7717 21.011C96.0474 21.011 95.4909 20.8608 95.1022 20.5605C94.7312 20.2425 94.5104 19.8008 94.4397 19.2355C94.3691 18.6702 94.4397 18.0253 94.6517 17.301L98.7592 2.991C99.1832 2.97333 99.5984 2.938 100.005 2.885C100.429 2.832 100.809 2.74367 101.144 2.62L96.6657 18.3875Z" fill="#FCFCFC"/>
<path d="M112.299 7.019L112.22 7.549H103.978L104.111 7.019H112.299ZM105.568 18.3875C105.409 18.9705 105.444 19.3945 105.674 19.6595C105.921 19.9068 106.239 20.0305 106.628 20.0305C107.017 20.0305 107.405 19.8627 107.794 19.527C108.2 19.1913 108.598 18.4758 108.987 17.3805L109.358 16.347H109.861L109.305 18.0165C108.916 19.1648 108.412 19.951 107.794 20.375C107.193 20.799 106.487 21.011 105.674 21.011C104.95 21.011 104.393 20.8608 104.005 20.5605C103.634 20.2425 103.413 19.8008 103.342 19.2355C103.271 18.6702 103.342 18.0253 103.554 17.301L107.662 2.991C108.086 2.97333 108.501 2.938 108.907 2.885C109.331 2.832 109.711 2.74367 110.047 2.62L105.568 18.3875Z" fill="#FCFCFC"/>
<path d="M116.272 2.196C116.361 1.73667 116.59 1.33917 116.961 1.0035C117.35 0.667833 117.765 0.5 118.207 0.5C118.666 0.5 119.02 0.667833 119.267 1.0035C119.532 1.33917 119.62 1.73667 119.532 2.196C119.444 2.65533 119.205 3.05283 118.816 3.3885C118.445 3.72417 118.03 3.892 117.571 3.892C117.129 3.892 116.776 3.72417 116.511 3.3885C116.264 3.05283 116.184 2.65533 116.272 2.196ZM115.451 9.2715C115.822 8.17617 115.698 7.6285 115.08 7.6285C114.674 7.6285 114.311 7.84933 113.993 8.291C113.675 8.73267 113.34 9.41283 112.986 10.3315L112.615 11.312H112.112L112.801 9.3775C113.066 8.6355 113.384 8.07017 113.755 7.6815C114.126 7.29283 114.515 7.02783 114.921 6.8865C115.345 6.7275 115.734 6.648 116.087 6.648C116.652 6.648 117.067 6.76283 117.332 6.9925C117.597 7.22217 117.756 7.5225 117.809 7.8935C117.862 8.2645 117.845 8.67083 117.756 9.1125C117.668 9.5365 117.553 9.95167 117.412 10.358L114.576 18.3875C114.4 18.8998 114.338 19.3062 114.391 19.6065C114.462 19.8892 114.665 20.0305 115 20.0305C115.354 20.0305 115.689 19.8362 116.007 19.4475C116.325 19.0588 116.679 18.3522 117.067 17.3275L117.438 16.347H117.942L117.253 18.2815C117.006 18.9705 116.705 19.5182 116.352 19.9245C115.999 20.3132 115.619 20.587 115.212 20.746C114.806 20.9227 114.4 21.011 113.993 21.011C113.234 21.011 112.721 20.8343 112.456 20.481C112.191 20.1277 112.094 19.6683 112.165 19.103C112.236 18.5377 112.386 17.937 112.615 17.301L115.451 9.2715Z" fill="#FCFCFC"/>
</g>
<defs>
<filter id="filter0_d_47_37" x="0" y="0.5" width="123.565" height="32.9365" filterUnits="userSpaceOnUse" color-interpolation-filters="sRGB">
<feFlood flood-opacity="0" result="BackgroundImageFix"/>
<feColorMatrix in="SourceAlpha" type="matrix" values="0 0 0 0 0 0 0 0 0 0 0 0 0 0 0 0 0 0 127 0" result="hardAlpha"/>
<feOffset dy="4"/>
<feGaussianBlur stdDeviation="2"/>
<feComposite in2="hardAlpha" operator="out"/>
<feColorMatrix type="matrix" values="0 0 0 0 0 0 0 0 0 0 0 0 0 0 0 0 0 0 0.25 0"/>
<feBlend mode="normal" in2="BackgroundImageFix" result="effect1_dropShadow_47_37"/>
<feBlend mode="normal" in="SourceGraphic" in2="effect1_dropShadow_47_37" result="shape"/>
</filter>
</defs>
</svg>
