<svg width="116" height="26" viewBox="0 0 116 26" fill="none" xmlns="http://www.w3.org/2000/svg">
<path d="M15.105 15.075C14.999 15.3577 14.893 15.6845 14.787 16.0555C14.681 16.4265 14.5662 16.824 14.4425 17.248C14.3542 17.5837 14.2393 18.0695 14.098 18.7055C13.9567 19.3238 13.833 19.9687 13.727 20.64C12.826 20.6047 11.8102 20.587 10.6795 20.587C9.54883 20.5693 8.54183 20.5605 7.6585 20.5605C7.26983 20.5605 6.76633 20.5605 6.148 20.5605C5.54733 20.5605 4.89367 20.5693 4.187 20.587C3.48033 20.587 2.76483 20.5958 2.0405 20.6135C1.31617 20.6135 0.636 20.6223 0 20.64L0.1325 20.11C0.733167 20.0747 1.20133 20.004 1.537 19.898C1.87267 19.792 2.12883 19.58 2.3055 19.262C2.49983 18.944 2.68533 18.467 2.862 17.831L6.3865 4.687C6.56317 4.03333 6.63383 3.55633 6.5985 3.256C6.58083 2.938 6.43067 2.726 6.148 2.62C5.883 2.49633 5.45017 2.42567 4.8495 2.408L4.982 1.878C5.353 1.89567 5.83883 1.91333 6.4395 1.931C7.04017 1.94867 7.685 1.9575 8.374 1.9575C8.99233 1.9575 9.60183 1.94867 10.2025 1.931C10.8208 1.91333 11.3332 1.89567 11.7395 1.878L11.607 2.408C11.0063 2.42567 10.5382 2.49633 10.2025 2.62C9.86683 2.726 9.60183 2.938 9.4075 3.256C9.21317 3.55633 9.02767 4.03333 8.851 4.687L5.3265 17.831C5.14983 18.467 5.07033 18.944 5.088 19.262C5.12333 19.58 5.28233 19.792 5.565 19.898C5.84767 19.9863 6.28933 20.0305 6.89 20.0305H8.8245C9.9375 20.0305 10.8208 19.8715 11.4745 19.5535C12.1458 19.2355 12.7023 18.7143 13.144 17.99C13.6033 17.2657 14.0538 16.294 14.4955 15.075H15.105Z" fill="#181826"/>
<path d="M22.6293 2.1695C22.6293 2.55817 22.5233 2.9645 22.3113 3.3885C22.117 3.79483 21.8608 4.28067 21.5428 4.846C21.2248 5.39367 20.8892 6.08267 20.5358 6.913H20.1648C20.2885 6.04733 20.368 5.35833 20.4033 4.846C20.4387 4.316 20.474 3.87433 20.5093 3.521C20.5447 3.15 20.6065 2.779 20.6948 2.408C20.7832 2.00167 20.9333 1.719 21.1453 1.56C21.3573 1.38333 21.5782 1.295 21.8078 1.295C22.1082 1.295 22.3202 1.38333 22.4438 1.56C22.5675 1.719 22.6293 1.92217 22.6293 2.1695Z" fill="#181826"/>
<path d="M29.6208 7.178C28.9495 7.178 28.2781 7.45183 27.6068 7.9995C26.9531 8.54717 26.3525 9.298 25.8048 10.252C25.2571 11.206 24.8155 12.2925 24.4798 13.5115C24.1618 14.7305 24.0028 16.0113 24.0028 17.354C24.0028 18.255 24.1706 18.9087 24.5063 19.315C24.8596 19.7037 25.3101 19.898 25.8578 19.898C26.4938 19.898 27.1475 19.7037 27.8188 19.315C28.4901 18.9263 29.1615 18.2373 29.8328 17.248L30.3628 17.46C30.0271 18.043 29.5855 18.6083 29.0378 19.156C28.4901 19.7037 27.8718 20.1542 27.1828 20.5075C26.5115 20.8432 25.796 21.011 25.0363 21.011C23.9763 21.011 23.1283 20.6842 22.4923 20.0305C21.8563 19.3768 21.5383 18.4052 21.5383 17.1155C21.5383 16.3028 21.6531 15.4283 21.8828 14.492C22.1301 13.538 22.4746 12.6017 22.9163 11.683C23.3756 10.7467 23.9321 9.9075 24.5858 9.1655C25.2395 8.40583 25.9815 7.79633 26.8118 7.337C27.6421 6.87767 28.552 6.648 29.5413 6.648C30.3186 6.648 30.99 6.85117 31.5553 7.2575C32.1206 7.64617 32.4033 8.19383 32.4033 8.9005C32.4033 9.23617 32.3238 9.57183 32.1648 9.9075C32.0235 10.2255 31.8115 10.4905 31.5288 10.7025C31.2461 10.9145 30.9105 11.0205 30.5218 11.0205C30.1508 11.0205 29.877 10.9233 29.7003 10.729C29.5236 10.517 29.4353 10.2697 29.4353 9.987C29.4353 9.47467 29.6385 9.04183 30.0448 8.6885C30.4511 8.3175 30.9105 8.08783 31.4228 7.9995C31.2461 7.75217 31.0165 7.55783 30.7338 7.4165C30.4511 7.2575 30.0801 7.178 29.6208 7.178Z" fill="#181826"/>
<path d="M40.5558 7.178C39.9904 7.178 39.4428 7.40767 38.9128 7.867C38.4004 8.30867 37.9234 8.91817 37.4818 9.6955C37.0578 10.4552 36.6779 11.312 36.3423 12.266C36.0243 13.22 35.7769 14.2093 35.6003 15.234C35.4236 16.2587 35.3353 17.2392 35.3353 18.1755C35.3353 18.9705 35.4589 19.5535 35.7063 19.9245C35.9713 20.2955 36.3511 20.481 36.8458 20.481C37.4111 20.481 37.9499 20.2602 38.4623 19.8185C38.9923 19.3592 39.4781 18.7497 39.9198 17.99C40.3614 17.2127 40.7413 16.347 41.0593 15.393C41.3773 14.439 41.6246 13.4585 41.8013 12.4515C41.9779 11.4268 42.0663 10.4375 42.0663 9.4835C42.0663 8.67083 41.9426 8.08783 41.6953 7.7345C41.4479 7.3635 41.0681 7.178 40.5558 7.178ZM33.0563 16.8505C33.0563 16.0732 33.1623 15.2252 33.3743 14.3065C33.5863 13.3878 33.9043 12.478 34.3283 11.577C34.7523 10.676 35.2646 9.8545 35.8653 9.1125C36.4836 8.3705 37.1991 7.77867 38.0118 7.337C38.8244 6.87767 39.7254 6.648 40.7148 6.648C41.8101 6.648 42.6846 6.9925 43.3383 7.6815C44.0096 8.35283 44.3453 9.39517 44.3453 10.8085C44.3453 11.5858 44.2393 12.4338 44.0273 13.3525C43.8153 14.2712 43.4973 15.181 43.0733 16.082C42.6493 16.983 42.1281 17.8045 41.5098 18.5465C40.9091 19.2885 40.2024 19.8892 39.3898 20.3485C38.5771 20.7902 37.6761 21.011 36.6868 21.011C35.5914 21.011 34.7081 20.6665 34.0368 19.9775C33.3831 19.2885 33.0563 18.2462 33.0563 16.8505Z" fill="#181826"/>
<path d="M48.6457 20.64H46.3402L49.5202 9.2715C49.5732 9.1125 49.6174 8.90933 49.6527 8.662C49.7057 8.397 49.7057 8.1585 49.6527 7.9465C49.5997 7.7345 49.4319 7.6285 49.1492 7.6285C48.7606 7.6285 48.4072 7.83167 48.0892 8.238C47.7712 8.64433 47.4356 9.34217 47.0822 10.3315L46.7377 11.312H46.2342L46.8967 9.3775C47.1617 8.6355 47.4709 8.07017 47.8242 7.6815C48.1952 7.29283 48.5751 7.02783 48.9637 6.8865C49.3701 6.7275 49.7499 6.648 50.1032 6.648C50.6332 6.648 51.0131 6.77167 51.2427 7.019C51.4724 7.24867 51.5961 7.55783 51.6137 7.9465C51.6491 8.3175 51.6226 8.715 51.5342 9.139C51.4459 9.563 51.3487 9.96933 51.2427 10.358L48.6457 20.64ZM56.1452 9.722C56.2689 9.351 56.3484 8.99767 56.3837 8.662C56.4367 8.32633 56.4102 8.0525 56.3042 7.8405C56.2159 7.61083 56.0039 7.496 55.6682 7.496C55.1736 7.496 54.6259 7.80517 54.0252 8.4235C53.4422 9.02417 52.8416 9.87217 52.2232 10.9675C51.6226 12.0452 51.0396 13.3083 50.4742 14.757C49.9089 16.188 49.4054 17.725 48.9637 19.368L49.8382 15.128C50.6509 13.008 51.4106 11.3297 52.1172 10.093C52.8239 8.85633 53.5306 7.973 54.2372 7.443C54.9616 6.913 55.7301 6.648 56.5427 6.648C57.1081 6.648 57.5144 6.7805 57.7617 7.0455C58.0267 7.29283 58.1857 7.61967 58.2387 8.026C58.2917 8.43233 58.2741 8.86517 58.1857 9.3245C58.1151 9.78383 58.0267 10.2255 57.9207 10.6495L55.2177 20.64H52.8327L56.1452 9.722ZM62.7702 9.722C62.9469 9.17433 63.0352 8.67083 63.0352 8.2115C63.0352 7.7345 62.8409 7.496 62.4522 7.496C61.9222 7.496 61.3657 7.80517 60.7827 8.4235C60.1997 9.04183 59.5991 9.92517 58.9807 11.0735C58.3624 12.2042 57.7441 13.538 57.1257 15.075C56.5251 16.5943 55.9421 18.2727 55.3767 20.11L55.9862 16.718C56.6752 14.8807 57.3112 13.326 57.8942 12.054C58.4772 10.7643 59.0514 9.722 59.6167 8.927C60.1821 8.132 60.7651 7.55783 61.3657 7.2045C61.9664 6.8335 62.6201 6.648 63.3267 6.648C64.0687 6.648 64.5722 6.86 64.8372 7.284C65.1022 7.708 65.2082 8.22917 65.1552 8.8475C65.1199 9.44817 65.0051 10.0488 64.8107 10.6495L62.2402 18.3875C62.0636 18.9352 62.0017 19.3503 62.0547 19.633C62.1077 19.898 62.3109 20.0305 62.6642 20.0305C62.9999 20.0305 63.3267 19.845 63.6447 19.474C63.9804 19.103 64.3337 18.3875 64.7047 17.3275L65.0492 16.347H65.5527L64.8902 18.2815C64.6429 19.0235 64.3337 19.5888 63.9627 19.9775C63.6094 20.3662 63.2296 20.6312 62.8232 20.7725C62.4346 20.9315 62.0547 21.011 61.6837 21.011C61.2421 21.011 60.8887 20.9403 60.6237 20.799C60.3764 20.6753 60.1821 20.5075 60.0407 20.2955C59.8287 19.9598 59.7581 19.5447 59.8287 19.05C59.8994 18.5377 60.0407 17.9547 60.2527 17.301L62.7702 9.722Z" fill="#181826"/>
<path d="M76.937 7.496C76.4776 7.496 75.9565 7.82283 75.3735 8.4765C74.8081 9.1125 74.2251 9.987 73.6245 11.1C73.0415 12.1953 72.485 13.432 71.955 14.81C71.4426 16.188 71.0098 17.619 70.6565 19.103L71.1335 16.241C71.8931 13.9267 72.6263 12.0717 73.333 10.676C74.0396 9.26267 74.7463 8.238 75.4529 7.602C76.1773 6.966 76.9281 6.648 77.7055 6.648C78.5358 6.648 79.1983 6.95717 79.693 7.5755C80.2053 8.19383 80.4615 9.13017 80.4615 10.3845C80.4615 11.1795 80.3466 12.054 80.117 13.008C79.905 13.962 79.5781 14.9072 79.1365 15.8435C78.7124 16.7798 78.1825 17.6455 77.5465 18.4405C76.9281 19.2178 76.2126 19.845 75.4 20.322C74.5873 20.7813 73.6863 21.011 72.697 21.011C72.167 21.011 71.69 20.852 71.266 20.534C70.8596 20.216 70.5858 19.7567 70.4445 19.156L70.6565 18.626C70.9038 19.2797 71.1865 19.739 71.5045 20.004C71.8401 20.269 72.2288 20.4015 72.6705 20.4015C73.2711 20.4015 73.8453 20.1718 74.393 19.7125C74.9406 19.2355 75.4441 18.6083 75.9035 17.831C76.3628 17.0537 76.7603 16.1968 77.096 15.2605C77.4493 14.3065 77.7143 13.3613 77.891 12.425C78.0853 11.471 78.1825 10.5965 78.1825 9.8015C78.1825 9.02417 78.0676 8.45 77.838 8.079C77.626 7.69033 77.3256 7.496 76.937 7.496ZM72.962 2.9645C73.386 2.94683 73.8011 2.9115 74.2075 2.8585C74.6315 2.8055 75.0201 2.71717 75.3735 2.5935L69.5435 22.972C69.3315 23.714 69.4374 24.2175 69.8615 24.4825C70.2855 24.7475 70.895 24.88 71.69 24.88L71.531 25.4365C71.1776 25.4188 70.6741 25.3923 70.0205 25.357C69.3845 25.3393 68.7043 25.3305 67.9799 25.3305C67.4323 25.3305 66.8758 25.3393 66.3105 25.357C65.7451 25.3923 65.3211 25.4188 65.0385 25.4365L65.1975 24.88C65.8335 24.88 66.2928 24.7563 66.5755 24.509C66.8581 24.2793 67.0878 23.8553 67.2645 23.237L72.962 2.9645ZM67.45 11.1795C68.139 10.5082 68.7838 9.84567 69.3845 9.192C69.9851 8.52067 70.5681 7.72567 71.1335 6.807C71.6988 5.88833 72.273 4.73117 72.856 3.3355L72.9355 3.7595C72.5468 4.96083 72.0786 6.02083 71.531 6.9395C71.001 7.8405 70.418 8.662 69.782 9.404C69.146 10.1283 68.4658 10.835 67.7415 11.524L67.45 11.1795Z" fill="#181826"/>
<path d="M86.4712 2.196C86.5595 1.73667 86.7892 1.33917 87.1602 1.0035C87.5488 0.667833 87.964 0.5 88.4057 0.5C88.865 0.5 89.2183 0.667833 89.4657 1.0035C89.7307 1.33917 89.819 1.73667 89.7307 2.196C89.6423 2.65533 89.4038 3.05283 89.0152 3.3885C88.6442 3.72417 88.229 3.892 87.7697 3.892C87.328 3.892 86.9747 3.72417 86.7097 3.3885C86.4623 3.05283 86.3828 2.65533 86.4712 2.196ZM85.6497 9.2715C86.0207 8.17617 85.897 7.6285 85.2787 7.6285C84.8723 7.6285 84.5102 7.84933 84.1922 8.291C83.8742 8.73267 83.5385 9.41283 83.1852 10.3315L82.8142 11.312H82.3107L82.9997 9.3775C83.2647 8.6355 83.5827 8.07017 83.9537 7.6815C84.3247 7.29283 84.7133 7.02783 85.1197 6.8865C85.5437 6.7275 85.9323 6.648 86.2857 6.648C86.851 6.648 87.2662 6.76283 87.5312 6.9925C87.7962 7.22217 87.9552 7.5225 88.0082 7.8935C88.0612 8.2645 88.0435 8.67083 87.9552 9.1125C87.8668 9.5365 87.752 9.95167 87.6107 10.358L84.7752 18.3875C84.5985 18.8998 84.5367 19.3062 84.5897 19.6065C84.6603 19.8892 84.8635 20.0305 85.1992 20.0305C85.5525 20.0305 85.8882 19.8362 86.2062 19.4475C86.5242 19.0588 86.8775 18.3522 87.2662 17.3275L87.6372 16.347H88.1407L87.4517 18.2815C87.2043 18.9705 86.904 19.5182 86.5507 19.9245C86.1973 20.3132 85.8175 20.587 85.4112 20.746C85.0048 20.9227 84.5985 21.011 84.1922 21.011C83.4325 21.011 82.9202 20.8343 82.6552 20.481C82.3902 20.1277 82.293 19.6683 82.3637 19.103C82.4343 18.5377 82.5845 17.937 82.8142 17.301L85.6497 9.2715Z" fill="#181826"/>
<path d="M99.3967 7.019L99.3172 7.549H91.0757L91.2082 7.019H99.3967ZM92.6657 18.3875C92.5067 18.9705 92.5421 19.3945 92.7717 19.6595C93.0191 19.9068 93.3371 20.0305 93.7257 20.0305C94.1144 20.0305 94.5031 19.8627 94.8917 19.527C95.2981 19.1913 95.6956 18.4758 96.0842 17.3805L96.4552 16.347H96.9587L96.4022 18.0165C96.0136 19.1648 95.5101 19.951 94.8917 20.375C94.2911 20.799 93.5844 21.011 92.7717 21.011C92.0474 21.011 91.4909 20.8608 91.1022 20.5605C90.7312 20.2425 90.5104 19.8008 90.4397 19.2355C90.3691 18.6702 90.4397 18.0253 90.6517 17.301L94.7592 2.991C95.1832 2.97333 95.5984 2.938 96.0047 2.885C96.4287 2.832 96.8086 2.74367 97.1442 2.62L92.6657 18.3875Z" fill="#181826"/>
<path d="M108.299 7.019L108.22 7.549H99.9781L100.111 7.019H108.299ZM101.568 18.3875C101.409 18.9705 101.444 19.3945 101.674 19.6595C101.921 19.9068 102.239 20.0305 102.628 20.0305C103.017 20.0305 103.405 19.8627 103.794 19.527C104.2 19.1913 104.598 18.4758 104.987 17.3805L105.358 16.347H105.861L105.305 18.0165C104.916 19.1648 104.412 19.951 103.794 20.375C103.193 20.799 102.487 21.011 101.674 21.011C100.95 21.011 100.393 20.8608 100.005 20.5605C99.6336 20.2425 99.4127 19.8008 99.3421 19.2355C99.2714 18.6702 99.3421 18.0253 99.5541 17.301L103.662 2.991C104.086 2.97333 104.501 2.938 104.907 2.885C105.331 2.832 105.711 2.74367 106.047 2.62L101.568 18.3875Z" fill="#181826"/>
<path d="M112.272 2.196C112.361 1.73667 112.59 1.33917 112.961 1.0035C113.35 0.667833 113.765 0.5 114.207 0.5C114.666 0.5 115.02 0.667833 115.267 1.0035C115.532 1.33917 115.62 1.73667 115.532 2.196C115.444 2.65533 115.205 3.05283 114.816 3.3885C114.445 3.72417 114.03 3.892 113.571 3.892C113.129 3.892 112.776 3.72417 112.511 3.3885C112.264 3.05283 112.184 2.65533 112.272 2.196ZM111.451 9.2715C111.822 8.17617 111.698 7.6285 111.08 7.6285C110.674 7.6285 110.311 7.84933 109.993 8.291C109.675 8.73267 109.34 9.41283 108.986 10.3315L108.615 11.312H108.112L108.801 9.3775C109.066 8.6355 109.384 8.07017 109.755 7.6815C110.126 7.29283 110.515 7.02783 110.921 6.8865C111.345 6.7275 111.734 6.648 112.087 6.648C112.652 6.648 113.067 6.76283 113.332 6.9925C113.597 7.22217 113.756 7.5225 113.809 7.8935C113.862 8.2645 113.845 8.67083 113.756 9.1125C113.668 9.5365 113.553 9.95167 113.412 10.358L110.576 18.3875C110.4 18.8998 110.338 19.3062 110.391 19.6065C110.462 19.8892 110.665 20.0305 111 20.0305C111.354 20.0305 111.689 19.8362 112.007 19.4475C112.325 19.0588 112.679 18.3522 113.067 17.3275L113.438 16.347H113.942L113.253 18.2815C113.006 18.9705 112.705 19.5182 112.352 19.9245C111.999 20.3132 111.619 20.587 111.212 20.746C110.806 20.9227 110.4 21.011 109.993 21.011C109.234 21.011 108.721 20.8343 108.456 20.481C108.191 20.1277 108.094 19.6683 108.165 19.103C108.236 18.5377 108.386 17.937 108.615 17.301L111.451 9.2715Z" fill="#181826"/>
</svg>
