<svg width="23" height="25" viewBox="0 0 23 25" fill="none" xmlns="http://www.w3.org/2000/svg">
<g clip-path="url(#clip0_48_84)">
<path d="M20.33 6.25002C21.44 6.63002 21.99 6.50002 21.99 5.87002C21.99 5.46002 21.77 5.09002 21.32 4.77002C20.87 4.45002 20.18 4.11002 19.25 3.75002L18.26 3.37002V2.87002L20.22 3.57002C20.97 3.84002 21.54 4.16002 21.94 4.54002C22.33 4.92002 22.61 5.31002 22.76 5.73002C22.91 6.15002 22.99 6.54002 22.99 6.90002C22.99 7.47002 22.87 7.89002 22.64 8.16002C22.41 8.43002 22.1 8.59002 21.73 8.64002C21.35 8.69002 20.95 8.68002 20.51 8.59002C20.07 8.50002 19.65 8.38002 19.24 8.24002L2.66 2.46002C2.14 2.29002 1.73 2.23002 1.44 2.29002C1.14 2.35002 1 2.55002 1 2.89002C1 3.25002 1.2 3.59002 1.59 3.91002C1.98 4.23002 2.7 4.59002 3.74 4.98002L4.73 5.36002V5.87002L2.77 5.17002C2.07 4.92002 1.52 4.62002 1.12 4.26002C0.71 3.90002 0.42 3.52002 0.26 3.11002C0.09 2.70002 0 2.29002 0 1.87002C0 1.10002 0.18 0.580021 0.54 0.310021C0.9 0.040021 1.36 -0.059979 1.94 0.010021C2.5 0.090021 3.11 0.250021 3.76 0.480021L20.33 6.25002Z" fill="#181826"/>
<path d="M20.33 14.35C21.44 14.73 21.99 14.6 21.99 13.97C21.99 13.56 21.77 13.19 21.32 12.87C20.87 12.55 20.18 12.21 19.25 11.85L18.26 11.47V10.96L20.22 11.66C20.97 11.93 21.54 12.25 21.94 12.63C22.33 13.01 22.61 13.4 22.76 13.82C22.91 14.24 22.99 14.63 22.99 14.99C22.99 15.56 22.87 15.98 22.64 16.25C22.41 16.52 22.1 16.68 21.73 16.73C21.35 16.78 20.95 16.77 20.51 16.68C20.07 16.59 19.65 16.47 19.24 16.33L2.66 10.57C2.14 10.39 1.73 10.33 1.44 10.4C1.14 10.46 1 10.66 1 11C1 11.36 1.2 11.7 1.59 12.02C1.98 12.34 2.7 12.7 3.74 13.09L4.73 13.47V13.98L2.77 13.28C2.07 13.03 1.52 12.73 1.12 12.37C0.72 12.01 0.43 11.63 0.26 11.22C0.09 10.8 0 10.39 0 9.98001C0 9.21001 0.18 8.69001 0.54 8.42001C0.9 8.15001 1.36 8.05001 1.94 8.12001C2.5 8.20001 3.11 8.35001 3.76 8.58001L20.33 14.35Z" fill="#181826"/>
<path d="M20.33 22.46C21.44 22.84 21.99 22.71 21.99 22.08C21.99 21.67 21.77 21.3 21.32 20.98C20.87 20.66 20.18 20.32 19.25 19.96L18.26 19.58V19.07L20.22 19.77C20.97 20.04 21.54 20.36 21.94 20.74C22.33 21.12 22.61 21.51 22.76 21.93C22.91 22.35 22.99 22.74 22.99 23.1C22.99 23.67 22.87 24.09 22.64 24.36C22.41 24.63 22.1 24.79 21.73 24.84C21.35 24.89 20.95 24.88 20.51 24.79C20.07 24.7 19.65 24.58 19.24 24.44L2.66 18.67C2.14 18.49 1.73 18.43 1.44 18.5C1.14 18.56 1 18.76 1 19.1C1 19.46 1.2 19.8 1.59 20.12C1.98 20.44 2.7 20.8 3.74 21.19L4.73 21.57V22.08L2.77 21.38C2.07 21.13 1.52 20.83 1.12 20.47C0.72 20.11 0.43 19.73 0.26 19.32C0.09 18.91 0 18.5 0 18.08C0 17.31 0.18 16.79 0.54 16.52C0.9 16.25 1.36 16.15 1.94 16.22C2.51 16.29 3.12 16.44 3.76 16.68L20.33 22.46Z" fill="#181826"/>
</g>
<defs>
<clipPath id="clip0_48_84">
<rect width="22.99" height="24.88" fill="white"/>
</clipPath>
</defs>
</svg>
