<svg width="23" height="25" viewBox="0 0 23 25" fill="none" xmlns="http://www.w3.org/2000/svg">
<g clip-path="url(#clip0_47_40)">
<path d="M20.33 6.24999C21.44 6.62999 21.99 6.49999 21.99 5.86999C21.99 5.45999 21.77 5.08999 21.32 4.76999C20.87 4.44999 20.18 4.10999 19.25 3.74999L18.26 3.36999V2.86999L20.22 3.56999C20.97 3.83999 21.54 4.15999 21.94 4.53999C22.33 4.91999 22.61 5.30999 22.76 5.72999C22.91 6.14999 22.99 6.53999 22.99 6.89999C22.99 7.46999 22.87 7.88999 22.64 8.15999C22.41 8.42999 22.1 8.58999 21.73 8.63999C21.35 8.68999 20.95 8.67999 20.51 8.58999C20.07 8.49999 19.65 8.37999 19.24 8.23999L2.66 2.45999C2.14 2.28999 1.73 2.22999 1.44 2.28999C1.14 2.34999 1 2.54999 1 2.88999C1 3.24999 1.2 3.58999 1.59 3.90999C1.98 4.22999 2.7 4.58999 3.74 4.97999L4.73 5.35999V5.86999L2.77 5.16999C2.07 4.91999 1.52 4.61999 1.12 4.25999C0.71 3.89999 0.42 3.51999 0.26 3.10999C0.09 2.69999 0 2.28999 0 1.86999C0 1.09999 0.18 0.579991 0.54 0.30999C0.9 0.0399905 1.36 -0.0600096 1.94 0.00999045C2.5 0.0899905 3.11 0.24999 3.76 0.47999L20.33 6.24999Z" fill="#FCFCFC"/>
<path d="M20.33 14.35C21.44 14.73 21.99 14.6 21.99 13.97C21.99 13.56 21.77 13.19 21.32 12.87C20.87 12.55 20.18 12.21 19.25 11.85L18.26 11.47V10.96L20.22 11.66C20.97 11.93 21.54 12.25 21.94 12.63C22.33 13.01 22.61 13.4 22.76 13.82C22.91 14.24 22.99 14.63 22.99 14.99C22.99 15.56 22.87 15.98 22.64 16.25C22.41 16.52 22.1 16.68 21.73 16.73C21.35 16.78 20.95 16.77 20.51 16.68C20.07 16.59 19.65 16.47 19.24 16.33L2.66 10.57C2.14 10.39 1.73 10.33 1.44 10.4C1.14 10.46 1 10.66 1 11C1 11.36 1.2 11.7 1.59 12.02C1.98 12.34 2.7 12.7 3.74 13.09L4.73 13.47V13.98L2.77 13.28C2.07 13.03 1.52 12.73 1.12 12.37C0.72 12.01 0.43 11.63 0.26 11.22C0.09 10.8 0 10.39 0 9.97998C0 9.20998 0.18 8.68998 0.54 8.41998C0.9 8.14998 1.36 8.04998 1.94 8.11998C2.5 8.19998 3.11 8.34998 3.76 8.57998L20.33 14.35Z" fill="#FCFCFC"/>
<path d="M20.33 22.46C21.44 22.84 21.99 22.71 21.99 22.08C21.99 21.67 21.77 21.3 21.32 20.98C20.87 20.66 20.18 20.32 19.25 19.96L18.26 19.58V19.07L20.22 19.77C20.97 20.04 21.54 20.36 21.94 20.74C22.33 21.12 22.61 21.51 22.76 21.93C22.91 22.35 22.99 22.74 22.99 23.1C22.99 23.67 22.87 24.09 22.64 24.36C22.41 24.63 22.1 24.79 21.73 24.84C21.35 24.89 20.95 24.88 20.51 24.79C20.07 24.7 19.65 24.58 19.24 24.44L2.66 18.67C2.14 18.49 1.73 18.43 1.44 18.5C1.14 18.56 1 18.76 1 19.1C1 19.46 1.2 19.8 1.59 20.12C1.98 20.44 2.7 20.8 3.74 21.19L4.73 21.57V22.08L2.77 21.38C2.07 21.13 1.52 20.83 1.12 20.47C0.72 20.11 0.43 19.73 0.26 19.32C0.09 18.91 0 18.5 0 18.08C0 17.31 0.18 16.79 0.54 16.52C0.9 16.25 1.36 16.15 1.94 16.22C2.51 16.29 3.12 16.44 3.76 16.68L20.33 22.46Z" fill="#FCFCFC"/>
</g>
<defs>
<clipPath id="clip0_47_40">
<rect width="22.99" height="24.88" fill="white"/>
</clipPath>
</defs>
</svg>
